<svg xmlns="http://www.w3.org/2000/svg" data-name="Layer 1" viewBox="0 0 512 512"><path fill="#fff" d="M107.4,392.21A22.8,22.8,0,1,0,130.2,415,22.82,22.82,0,0,0,107.4,392.21Zm0,30.59a7.8,7.8,0,1,1,7.8-7.79A7.8,7.8,0,0,1,107.4,422.8ZM37.5,336H257.15a7.5,7.5,0,0,0,7.5-7.5v-31a7.5,7.5,0,0,0-7.5-7.5H245V219.1h13a7.49,7.49,0,0,0,6.45-11.32l-20.12-34a7.48,7.48,0,0,0-6.46-3.68H59.16a7.48,7.48,0,0,0-6.46,3.68l-20.12,34A7.49,7.49,0,0,0,39,219.1H52V290H37.5a7.5,7.5,0,0,0-7.5,7.5v31A7.5,7.5,0,0,0,37.5,336ZM63.43,185.1H233.57l11.25,19H52.18ZM230,219.1V290H67V219.1ZM45,305H249.65v16H45Zm454.19-15.52-46.16-22L416.37,153.12a22.43,22.43,0,0,0-21.43-15.63H22.5A22.53,22.53,0,0,0,0,160V400a22.53,22.53,0,0,0,22.5,22.5H47.77a60.1,60.1,0,0,0,119.27,0H345a60.1,60.1,0,0,0,119.27,0H489.5A22.53,22.53,0,0,0,512,400V309.79A22.61,22.61,0,0,0,499.19,289.48ZM107.4,460.12A45.12,45.12,0,1,1,152.52,415,45.17,45.17,0,0,1,107.4,460.12ZM279.65,155V407.51H167a60.1,60.1,0,0,0-119.27,0H22.5A7.51,7.51,0,0,1,15,400V160a7.51,7.51,0,0,1,7.5-7.5H280.08A7.68,7.68,0,0,0,279.65,155Zm125,305.13A45.12,45.12,0,1,1,449.71,415,45.17,45.17,0,0,1,404.6,460.12ZM497,350H484.5a12.5,12.5,0,0,1,0-25H497Zm0-40H484.5a27.5,27.5,0,0,0,0,55H497v35a7.51,7.51,0,0,1-7.5,7.5H464.23a60.1,60.1,0,0,0-119.27,0H294.65V155a7.43,7.43,0,0,0-.44-2.5H394.94a7.48,7.48,0,0,1,7.14,5.21l37.66,117.41a7.48,7.48,0,0,0,3.91,4.48L492.73,303a7.53,7.53,0,0,1,4.27,6.77ZM344.25,293.5h-24a7.5,7.5,0,0,0,0,15h24a7.5,7.5,0,0,0,0-15Zm43.21-118.13a7.48,7.48,0,0,0-7.16-5.27H320.25a7.5,7.5,0,0,0-7.5,7.5v86.9a7.5,7.5,0,0,0,7.5,7.5H407.3a7.5,7.5,0,0,0,7.16-9.73ZM327.75,257V185.1h47L397.12,257ZM404.6,392.21A22.8,22.8,0,1,0,427.39,415,22.83,22.83,0,0,0,404.6,392.21Zm0,30.59a7.8,7.8,0,1,1,7.79-7.79A7.8,7.8,0,0,1,404.6,422.8Z"/></svg>